# xmcd CD database file
#
# Track frame offsets:
#	150
#	15827
#	28028
#	42248
#	56257
#	69615
#	80290
#	92930
#	106028
#	117167
#	133095
#	144542
#	154522
#
# Disc length: 2216 seconds
#
# Revision: 0
# Processed by: cddbd v1.4PL0 Copyright (c) Steve Scherf et al.
# Submitted via: CDex 1.50Beta7
#
DISCID=9c08a60d
DTITLE=Billie Jo Spears - Billie Jo Spears
DYEAR=1970
DGENRE=Country
TTITLE0=Blanket on the ground
TTITLE1=What I've got in mind
TTITLE2=Crying time
TTITLE3=Which way you goin' Billy
TTITLE4=Fever
TTITLE5=I'm so lonesome I could cry
TTITLE6=57 Chevrolet
TTITLE7=It coulda been me
TTITLE8=Tennessee Waltz
TTITLE9=Queen of the Silver Dollar
TTITLE10=Silver threads and golden needles
TTITLE11=I stayed long enough
TTITLE12=Ease the want in me
EXTD=YEAR: 1970
EXTT0=
EXTT1=
EXTT2=
EXTT3=
EXTT4=
EXTT5=
EXTT6=
EXTT7=
EXTT8=
EXTT9=
EXTT10=
EXTT11=
EXTT12=
PLAYORDER=
